<svg width="73" height="73" viewBox="0 0 73 73" fill="none" xmlns="http://www.w3.org/2000/svg">
<path d="M31.7784 0H31.8108C35.4432 0 38.7301 1.47871 41.1024 3.86716L41.1032 3.86788C43.4778 6.30433 44.9425 9.63763 44.9425 13.313C44.9425 16.9575 43.5024 20.2654 41.1602 22.6991L41.103 22.7592L22.7306 41.1318C20.3591 43.5113 17.0786 44.9836 13.4543 44.9836H13.4033H13.4059C9.72407 44.9684 6.38121 43.5297 3.89677 41.1897L3.90379 41.1962L3.83936 41.135C1.46474 38.6985 0 35.3652 0 31.6898C0 28.0454 1.43998 24.7374 3.78224 22.3037L3.83943 22.2436L22.2762 3.80996C24.753 1.47407 28.0958 0.033013 31.775 0.0160721H31.7784V0ZM37.6511 19.3555C39.1709 17.7905 40.1079 15.6523 40.1079 13.2952C40.1079 10.9546 39.1838 8.82961 37.6805 7.26554L37.6834 7.26844C36.1826 5.76497 34.1077 4.83489 31.8157 4.83489H31.7763H31.7783C29.3831 4.85154 27.2098 5.78814 25.5912 7.30848L25.5962 7.30399L7.29132 25.6088C5.77113 27.1739 4.8338 29.3125 4.8338 31.6699C4.8338 33.9946 5.74528 36.1064 7.23036 37.6673L7.22703 37.6637C8.84032 39.1777 11.0124 40.113 13.4027 40.1295H13.4434C15.7353 40.1295 17.8101 39.1994 19.3107 37.6961L19.3109 37.6959L37.6511 19.3555ZM51.9622 30.8625C63.4442 30.8625 72.7522 40.1705 72.7522 51.6524C72.7522 63.1344 63.4442 72.4423 51.9622 72.4423C40.4803 72.4423 31.1724 63.1344 31.1724 51.6524C31.1724 40.1705 40.4803 30.8625 51.9622 30.8625ZM51.9622 67.6074C60.774 67.6074 67.9173 60.464 67.9173 51.6524C67.9173 42.8407 60.7739 35.6972 51.9622 35.6972C43.1506 35.6972 36.0072 42.8406 36.0072 51.6524C36.0072 60.4641 43.1506 67.6074 51.9623 67.6074H51.9622ZM63.1468 66.2536L38.0055 41.1123L41.4222 37.6957L66.5635 62.837L63.1468 66.2536ZM28.6583 31.7651L13.1867 16.2934L16.6033 12.8767L32.0748 28.3482L28.6583 31.7651Z" fill="white"/>
</svg>
