<svg width="77" height="117" viewBox="0 0 77 117" fill="none" xmlns="http://www.w3.org/2000/svg">
<path d="M13.7257 0H62.9524C70.5294 0.00884361 76.6693 6.14858 76.6782 13.7248V102.375C76.6693 109.952 70.5296 116.092 62.9533 116.101H13.7257C6.14903 116.092 0.00907037 109.952 0 102.376V13.7258C0.00907037 6.1488 6.14892 0.00873023 13.7251 0H13.7257ZM62.9524 108.361C66.257 108.358 68.9351 105.68 68.9381 102.375V13.7256C68.935 10.4211 66.2569 7.74292 62.9528 7.73997H13.7257C10.4212 7.74281 7.74303 10.4209 7.74009 13.7253V102.375C7.74303 105.679 10.4212 108.358 13.7254 108.361H13.7257L62.9524 108.361ZM23.5814 3.86999H53.1485V9.02989C53.1485 11.8798 50.8382 14.19 47.9884 14.19H28.4835C25.6337 14.19 23.3235 11.8798 23.3235 9.03012V3.86987L23.5814 3.86999ZM43.2411 101.343H33.4371V93.6029H43.2411V101.343Z" fill="white"/>
</svg>
