<svg width="94" height="113" viewBox="0 0 94 113" fill="none" xmlns="http://www.w3.org/2000/svg">
<path d="M46.6318 0.000330526C72.3735 0.0311769 93.233 20.8904 93.2636 46.6291V46.632C93.0557 56.0404 90.4394 64.7951 86.0101 72.359L86.1461 72.1076C81.7746 79.7994 76.7721 86.4373 71.0325 92.3563L71.057 92.331C64.5647 99.1745 57.4643 105.317 49.8023 110.715L49.3561 111.013L46.6317 112.829L43.9075 111.013C35.7993 105.316 28.6988 99.1742 22.2653 92.3932L22.2065 92.3309C16.4914 86.437 11.489 79.7992 7.37163 72.5905L7.11747 72.1074C2.82443 64.7947 0.207993 56.0402 0.00110166 46.6912L0 46.6317C0.0308464 20.8903 20.8903 0.0308464 46.6287 0H46.6318V0.000330526ZM46.6318 100.872C55.5704 94.2114 83.4464 71.4503 83.4464 46.6321C83.4464 26.3 66.964 9.81753 46.6318 9.81753C26.2996 9.81753 9.81719 26.2999 9.81719 46.632C9.81719 71.5039 37.6834 94.221 46.6318 100.872V100.872ZM46.6318 70.0952C33.6791 70.0814 23.1826 59.585 23.1687 46.6336V46.6323H32.9858C32.9858 54.1687 39.0953 60.2783 46.6317 60.2783C54.1681 60.2783 60.2776 54.1685 60.2776 46.632C60.2776 39.0956 54.1681 32.9863 46.6317 32.9863V23.1689C59.59 23.1689 70.0948 33.6739 70.0948 46.6323C70.0948 59.5906 59.59 70.0953 46.6317 70.0953L46.6318 70.0952Z" fill="white"/>
</svg>
