<svg width="136" height="134" viewBox="0 0 136 134" fill="none" xmlns="http://www.w3.org/2000/svg">
<path d="M0.5 112.129V1.00561L19.3099 15.2417L19.6058 15.4656L19.9058 15.2473L35.2519 4.08003L49.9461 15.1996L50.2478 15.4279L50.5495 15.1996L65.292 4.04273L80.0346 15.1996L80.3363 15.4279L80.6381 15.1996L99.3936 1.00545V50.207H92.6725H92.1724L92.1725 50.7071L92.1847 112.739V113.039V113.048L92.1851 113.058L92.1869 113.108L92.1872 113.113C92.279 114.974 92.6036 116.773 93.1329 118.483C92.3954 116.757 91.831 114.934 91.4655 113.04L91.4393 112.876L91.438 112.868L91.4365 112.861L91.3672 112.5V18.1213V17.1158L90.5654 17.7226L80.3363 25.4639L65.5939 14.307L65.2921 14.0787L64.9904 14.307L50.2481 25.4639L35.4514 14.2649L35.1556 14.041L34.8555 14.2593L19.5095 25.4262L9.3283 17.7222L8.5266 17.1155V18.1209V112.128V112.129C8.53362 119.519 14.5476 125.504 21.9635 125.512H21.964H96.4697H96.8263C99.9971 129.544 104.559 132.443 109.804 133.5H21.9651C10.1137 133.487 0.513363 123.924 0.5 112.129ZM93.1726 51.207H99.3936V111.685V111.725L99.4002 111.765C100.577 118.96 106.324 124.532 113.535 125.458V132.939C113.42 132.933 113.305 132.925 113.191 132.915L113.18 132.914L113.169 132.913C102.35 132.384 93.7161 123.784 93.1861 113.067C93.1861 113.066 93.186 113.065 93.186 113.064L93.1847 113.029V112.739L93.1726 51.207ZM100.394 51.207H135.5V113.01C135.132 118.639 132.619 123.62 128.775 127.205L128.766 127.214L128.759 127.22C125.063 130.739 120.055 132.916 114.535 132.954V125.011V124.917C121.403 124.713 126.96 119.374 127.469 112.628H127.469L127.47 112.619L127.472 112.576L127.473 112.562V112.547L127.474 59.6956L127.474 59.1956H126.974H101.699H101.199V59.6956V112.565V112.578L101.2 112.59C101.262 113.845 101.502 115.053 101.895 116.188C101.176 114.787 100.662 113.259 100.394 111.644V51.207ZM78.3318 53.2033H41.4203V45.2148H78.3318V53.2033ZM78.3318 76.5731H41.4203V68.5847H78.3318V76.5731ZM78.3318 99.3439H41.4203V91.3554H78.3318V99.3439ZM33.5 53.2031H23.0666V45.2146H33.5V53.2031ZM33.5 76.573H23.0666V68.5847H33.5V76.573ZM33.5 99.3438H23.0666V91.3553H33.5V99.3438Z" fill="white" stroke="white"/>
</svg>
