<svg width="35" height="34" viewBox="0 0 35 34" fill="none" xmlns="http://www.w3.org/2000/svg">
<path d="M22.2322 15.725L20.7013 17.289C19.4766 18.513 18.7111 19.55 18.7111 22.1H15.3091V21.25C15.3091 19.363 16.0745 17.663 17.2993 16.439L19.4085 14.297C20.0379 13.685 20.4121 12.835 20.4121 11.9C20.4121 10.013 18.8812 8.5 17.0101 8.5C16.1078 8.5 15.2425 8.85821 14.6045 9.49584C13.9665 10.1335 13.6081 10.9983 13.6081 11.9H10.2061C10.2061 10.0965 10.9229 8.36692 12.1989 7.09167C13.4749 5.81643 15.2056 5.1 17.0101 5.1C18.8146 5.1 20.5453 5.81643 21.8213 7.09167C23.0973 8.36692 23.8141 10.0965 23.8141 11.9C23.8141 13.396 23.2018 14.739 22.2322 15.725ZM18.7111 28.9H15.3091V25.5H18.7111M17.0101 0C14.7763 0 12.5644 0.439718 10.5006 1.29405C8.43686 2.14838 6.56168 3.40059 4.98214 4.97918C1.79213 8.1673 0 12.4913 0 17C0 21.5087 1.79213 25.8327 4.98214 29.0208C6.56168 30.5994 8.43686 31.8516 10.5006 32.706C12.5644 33.5603 14.7763 34 17.0101 34C21.5215 34 25.848 32.2089 29.0381 29.0208C32.2281 25.8327 34.0202 21.5087 34.0202 17C34.0202 7.599 26.3657 0 17.0101 0Z" fill="#AB55AC"/>
</svg>
