<svg width="32" height="42" viewBox="0 0 32 42" fill="none" xmlns="http://www.w3.org/2000/svg">
<path d="M16 0C22.62 0 28 5.32 28 11.9C28 20.82 16 34 16 34C16 34 4 20.82 4 11.9C4 5.32 9.38 0 16 0ZM16 8C14.9391 8 13.9217 8.42143 13.1716 9.17157C12.4214 9.92172 12 10.9391 12 12C12 13.0609 12.4214 14.0783 13.1716 14.8284C13.9217 15.5786 14.9391 16 16 16C17.0609 16 18.0783 15.5786 18.8284 14.8284C19.5786 14.0783 20 13.0609 20 12C20 10.9391 19.5786 9.92172 18.8284 9.17157C18.0783 8.42143 17.0609 8 16 8ZM32 34C32 38.42 24.84 42 16 42C7.16 42 0 38.42 0 34C0 31.42 2.44 29.12 6.22 27.66L7.5 29.48C5.34 30.38 4 31.62 4 33C4 35.76 9.38 38 16 38C22.62 38 28 35.76 28 33C28 31.62 26.66 30.38 24.5 29.48L25.78 27.66C29.56 29.12 32 31.42 32 34Z" fill="#AB55AC"/>
</svg>
