<svg width="39" height="45" viewBox="0 0 39 45" fill="none" xmlns="http://www.w3.org/2000/svg">
<path d="M15.1667 40.7143H23.8333C23.8333 43.0714 21.8833 45 19.5 45C17.1167 45 15.1667 43.0714 15.1667 40.7143ZM39 36.4286V38.5714H0V36.4286L4.33333 32.1429V19.2857C4.33333 12.6429 8.66667 6.85714 15.1667 4.92857V4.28571C15.1667 1.92857 17.1167 0 19.5 0C21.8833 0 23.8333 1.92857 23.8333 4.28571V4.92857C30.3333 6.85714 34.6667 12.6429 34.6667 19.2857V32.1429L39 36.4286ZM30.3333 19.2857C30.3333 13.2857 25.5667 8.57143 19.5 8.57143C13.4333 8.57143 8.66667 13.2857 8.66667 19.2857V34.2857H30.3333V19.2857Z" fill="#AB55AC"/>
</svg>
