<svg width="35" height="35" viewBox="0 0 35 35" fill="none" xmlns="http://www.w3.org/2000/svg">
<path d="M27.4052 27.3889C25.5039 27.3889 23.9795 28.9124 23.9795 30.8125C23.9795 31.7205 24.3404 32.5913 24.9829 33.2334C25.6253 33.8754 26.4966 34.2361 27.4052 34.2361C28.3137 34.2361 29.185 33.8754 29.8275 33.2334C30.4699 32.5913 30.8308 31.7205 30.8308 30.8125C30.8308 28.9124 29.2893 27.3889 27.4052 27.3889ZM0 0V3.42361H3.42565L9.59181 16.4162L7.26237 20.6101C7.00544 21.0894 6.85129 21.6543 6.85129 22.2535C6.85129 23.1615 7.21221 24.0323 7.85464 24.6743C8.49707 25.3164 9.3684 25.6771 10.2769 25.6771H30.8308V22.2535H10.9963C10.8828 22.2535 10.7738 22.2084 10.6935 22.1281C10.6132 22.0479 10.5681 21.939 10.5681 21.8255C10.5681 21.7399 10.5852 21.6715 10.6195 21.6201L12.161 18.8299H24.9216C26.2062 18.8299 27.3366 18.1109 27.919 17.0667L34.0509 5.99132C34.1708 5.71743 34.2565 5.42642 34.2565 5.13542C34.2565 4.68142 34.076 4.24601 33.7548 3.92499C33.4336 3.60396 32.9979 3.42361 32.5436 3.42361H7.21098L5.60093 0M10.2769 27.3889C8.3757 27.3889 6.85129 28.9124 6.85129 30.8125C6.85129 31.7205 7.21221 32.5913 7.85464 33.2334C8.49707 33.8754 9.3684 34.2361 10.2769 34.2361C11.1855 34.2361 12.0568 33.8754 12.6992 33.2334C13.3417 32.5913 13.7026 31.7205 13.7026 30.8125C13.7026 28.9124 12.161 27.3889 10.2769 27.3889Z" fill="#AB55AC"/>
</svg>
