<svg width="36" height="34" viewBox="0 0 36 34" fill="none" xmlns="http://www.w3.org/2000/svg">
<path d="M17.7189 0C20.0685 0 22.322 0.895533 23.9834 2.48959C25.6449 4.08365 26.5783 6.24566 26.5783 8.5C26.5783 10.7543 25.6449 12.9163 23.9834 14.5104C22.322 16.1045 20.0685 17 17.7189 17C15.3692 17 13.1158 16.1045 11.4543 14.5104C9.79283 12.9163 8.85943 10.7543 8.85943 8.5C8.85943 6.24566 9.79283 4.08365 11.4543 2.48959C13.1158 0.895533 15.3692 0 17.7189 0ZM17.7189 21.25C27.5085 21.25 35.4377 25.0537 35.4377 29.75V34H0V29.75C0 25.0537 7.92919 21.25 17.7189 21.25Z" fill="#AB55AC"/>
</svg>
